<?xml version="1.0" encoding="iso-8859-1"?>
<!-- Generator: Adobe Illustrator 19.0.0, SVG Export Plug-In . SVG Version: 6.00 Build 0)  -->
<svg version="1.1" id="Capa_1" xmlns="http://www.w3.org/2000/svg" xmlns:xlink="http://www.w3.org/1999/xlink" x="0px" y="0px"
	 viewBox="0 0 512 512" style="enable-background:new 0 0 512 512;" xml:space="preserve">
<g>
	<g>
		<path d="M371.998,24.329c-45.046-1.432-87.619,18.828-116.001,54.695c-27.362-34.523-68.206-54.767-111.476-54.767
			c-0.208,0-0.42,0-0.628,0.001c-37.359,0.169-72.817,15.327-99.843,42.683C15.747,95.588-0.306,135.399,0.004,176.165
			c0.303,39.744,15.31,77.126,42.27,105.273l98.951,102.824c1.64,1.705,3.829,2.562,6.021,2.562c2.084,0,4.172-0.776,5.792-2.334
			c3.324-3.199,3.426-8.488,0.227-11.813l-98.937-102.81c-23.987-25.043-37.345-58.365-37.615-93.829
			c-0.277-36.357,14.019-71.841,39.222-97.353c23.882-24.174,55.146-37.569,88.032-37.717c0.185-0.001,0.366-0.001,0.552-0.001
			c41.52,0,80.573,21.232,104.549,56.874c1.552,2.307,4.151,3.691,6.932,3.691c2.781,0,5.38-1.384,6.932-3.691
			c24.856-36.949,65.414-58.181,108.533-56.811c4.598,0.169,8.469-3.471,8.617-8.084C380.229,28.335,376.61,24.476,371.998,24.329z"
			/>
	</g>
</g>
<g>
	<g>
		<path d="M511.952,171.042c-1.531-63.036-41.231-118.912-98.789-139.041c-4.357-1.527-9.121,0.772-10.644,5.128
			c-1.523,4.356,0.773,9.12,5.128,10.643c51.034,17.848,86.238,67.55,87.601,123.675c0.885,36.48-11.998,70.939-36.277,97.03
			c-0.062,0.066-0.122,0.134-0.182,0.201l-0.233,0.243c-0.729,0.777-1.469,1.545-2.286,2.375L269.873,465.018
			c-3.732,3.879-8.659,6.016-13.871,6.016c-5.213,0-10.14-2.136-13.872-6.015l-60.064-62.415c-3.199-3.324-8.488-3.426-11.813-0.227
			c-3.324,3.199-3.426,8.488-0.227,11.813l60.064,62.415c6.912,7.183,16.115,11.138,25.913,11.138c9.798,0,19-3.956,25.911-11.139
			l186.327-193.65c0.84-0.853,1.671-1.717,2.425-2.519l0.453-0.471c0.128-0.134,0.252-0.271,0.37-0.411
			C498.574,250.285,512.941,211.767,511.952,171.042z"/>
	</g>
</g>
<g>
</g>
<g>
</g>
<g>
</g>
<g>
</g>
<g>
</g>
<g>
</g>
<g>
</g>
<g>
</g>
<g>
</g>
<g>
</g>
<g>
</g>
<g>
</g>
<g>
</g>
<g>
</g>
<g>
</g>
</svg>
